<svg width="109" height="100" viewBox="0 0 109 100" fill="none" xmlns="http://www.w3.org/2000/svg">
<rect x="5" width="46" height="46" rx="5" fill="white"/>
<path d="M82.4645 57.5355C84.4171 55.5829 87.5829 55.5829 89.5355 57.5355L105.464 73.4645C107.417 75.4171 107.417 78.5829 105.464 80.5355L89.5355 96.4645C87.5829 98.4171 84.4171 98.4171 82.4645 96.4645L66.5355 80.5355C64.5829 78.5829 64.5829 75.4171 66.5355 73.4645L82.4645 57.5355Z" fill="white"/>
<rect x="63" width="46" height="46" rx="23" fill="white"/>
<path d="M23.2084 61.1786C25.1489 57.9328 29.8511 57.9328 31.7916 61.1786L50.4771 92.4344C52.4695 95.7671 50.0684 100 46.1855 100H8.8145C4.9316 100 2.53052 95.7671 4.52292 92.4344L23.2084 61.1786Z" fill="white"/>
</svg>
