<svg width="198" height="197" viewBox="0 0 198 197" fill="none" xmlns="http://www.w3.org/2000/svg">
<path fill-rule="evenodd" clip-rule="evenodd" d="M98.8219 0C44.5248 0 0.508301 44.0165 0.508301 98.3136C0.508301 152.611 44.5248 196.627 98.8219 196.627C153.119 196.627 197.135 152.611 197.135 98.3136C197.135 44.0165 153.119 0 98.8219 0ZM116.286 51C125.391 52.504 134.115 55.1987 142.329 58.896C156.592 79.3881 163.666 102.575 160.928 129.27C150.033 137.104 139.4 141.867 129.021 145C126.474 141.616 124.181 137.981 122.207 134.159C125.964 132.78 129.53 131.088 132.969 129.082C132.351 128.649 131.764 128.184 131.165 127.711C130.9 127.501 130.632 127.289 130.358 127.077C109.855 136.415 87.3712 136.415 66.6133 127.077C65.7855 127.767 64.894 128.456 64.0025 129.082C67.441 131.088 71.0068 132.78 74.7636 134.159C72.7897 137.981 70.4974 141.616 67.9504 145C57.565 141.867 46.9949 137.104 36.0429 129.27C33.8143 106.209 38.2715 82.8346 54.7632 58.896C62.9199 55.1987 71.6434 52.504 80.8124 51C81.8949 52.9427 83.2321 55.5746 84.1236 57.6427C93.6749 56.264 103.29 56.264 112.975 57.6427C113.866 55.5746 115.14 52.9427 116.286 51ZM66.2947 102.637C66.2947 109.468 71.3887 115.045 77.6289 115.045C83.9326 115.045 88.9627 109.468 88.9627 102.637C89.0901 95.8068 83.9326 90.2292 77.6289 90.2292C71.2614 90.2292 66.2947 95.8068 66.2947 102.637ZM108.129 102.637C108.129 109.468 113.229 115.045 119.47 115.045C125.837 115.045 130.804 109.468 130.804 102.637C130.931 95.8068 125.773 90.2292 119.47 90.2292C113.102 90.2292 108.129 95.8068 108.129 102.637Z" fill="currentColor"/>
</svg>
