<svg width="73" height="109" viewBox="0 0 73 109" fill="none" xmlns="http://www.w3.org/2000/svg">
<path fill-rule="evenodd" clip-rule="evenodd" d="M59.7853 45.3604C61.0602 43.3319 62.2457 41.2402 63.3367 39.0907L67.5827 30.7248L71.4552 50.4342C73.6205 61.4542 72.5894 72.9578 68.5503 83.4364C68.4786 83.6224 68.4052 83.8077 68.3302 83.9923C64.7899 98.3518 51.8319 109 36.3886 109C24.7442 109 14.5129 102.946 8.66615 93.8125C2.40584 85.3265 -0.496296 74.6111 0.91217 63.8134L2.27017 53.4027L12.2634 14.6309L14.7375 22.0609C17.4431 30.1859 21.2909 37.8349 26.1318 44.7925L26.1675 44.7809C32.4284 30.7085 35.9201 15.5026 36.3886 0L47.6017 19.3392C52.4204 27.6498 56.4954 36.3577 59.7853 45.3604ZM24.9697 71.4632C26.5802 74.4349 28.6294 77.1253 31.0343 79.4509C31.4489 79.2479 31.8773 79.0687 32.3176 78.9151C37.8267 73.6743 41.8574 67.0711 44.0016 59.7715L46.1688 67.6049C47.6677 73.0228 48.3945 78.6253 48.3278 84.2465L48.2992 86.6517C48.2872 87.6675 48.1389 88.6626 47.8675 89.6146C47.8711 89.7343 47.873 89.8545 47.873 89.975C47.873 96.4421 42.6338 101.685 36.171 101.685C35.1299 101.685 34.1206 101.549 33.1598 101.293C32.6102 101.216 32.0671 101.059 31.5478 100.82C26.3292 98.4237 22.8857 93.3108 22.6245 87.5711L22.4479 83.6896L23.5889 68.9155L24.9697 71.4632Z" fill="white"/>
</svg>
