<svg width="197" height="197" viewBox="0 0 197 197" fill="none" xmlns="http://www.w3.org/2000/svg">
<path fill-rule="evenodd" clip-rule="evenodd" d="M98.4489 0C44.1519 0 0.135376 44.0165 0.135376 98.3136C0.135376 152.611 44.1519 196.627 98.4489 196.627C152.746 196.627 196.762 152.611 196.762 98.3136C196.762 44.0165 152.746 0 98.4489 0ZM152.179 60.7343C152.189 60.73 152.168 60.8231 152.088 61.0267C152.129 60.8404 152.169 60.7386 152.179 60.7343ZM38.6976 126.253C38.7062 126.247 38.8144 126.263 38.9964 126.32C38.7801 126.287 38.6891 126.259 38.6976 126.253ZM43.8862 135.24C43.8766 135.244 43.8973 135.151 43.9774 134.947C43.9359 135.133 43.8959 135.235 43.8862 135.24ZM157.069 69.654C157.285 69.6864 157.376 69.715 157.367 69.7212C157.359 69.7274 157.251 69.7111 157.069 69.654ZM166.073 58.7036C169.713 65.0068 161.046 77.4209 144.876 91.1385C147.592 109.756 138.983 128.994 121.697 138.974C104.411 148.954 83.4461 146.79 68.6811 135.13C48.7156 142.276 33.631 143.574 29.9917 137.27C26.3566 130.974 34.9996 118.58 51.1356 104.881C50.1879 98.524 50.5352 91.9797 52.2308 85.6516C55.4796 73.5269 63.4119 63.1894 74.2826 56.9132C85.1533 50.637 98.0719 48.9362 110.197 52.185C116.52 53.8795 122.358 56.8479 127.387 60.8428C147.351 53.6983 162.434 52.4005 166.073 58.7036ZM56.9867 121.55C57.006 121.583 57.0252 121.617 57.0446 121.65C57.1195 121.78 57.195 121.909 57.2711 122.038C68.9064 118.155 84.1862 111.093 100.247 101.821C116.307 92.5481 130.063 82.8465 139.243 74.7114C139.17 74.5811 139.096 74.4511 139.021 74.3212C136.291 69.5942 132.87 65.5161 128.958 62.141C141.151 58.5022 149.908 58.2439 152.21 62.2315C156.675 69.965 135.171 90.7396 104.179 108.633C73.1868 126.526 44.4433 134.762 39.9784 127.029C37.68 123.048 42.2631 115.611 51.4796 106.89C52.469 112.005 54.3048 116.969 56.959 121.566L56.9867 121.55Z" fill="currentColor"/>
</svg>
