<svg width="198" height="197" viewBox="0 0 198 197" fill="none" xmlns="http://www.w3.org/2000/svg">
<path fill-rule="evenodd" clip-rule="evenodd" d="M98.9408 0C44.6437 0 0.627197 44.0165 0.627197 98.3136C0.627197 152.611 44.6437 196.627 98.9408 196.627C153.238 196.627 197.254 152.611 197.254 98.3136C197.254 44.0165 153.238 0 98.9408 0ZM142 81.6289C142 108.079 125.804 113.647 110.575 115.456C113.065 117.547 115.144 121.719 115.144 128.127V146.817C115.144 153.546 109.69 159 102.961 159H93.6843C86.956 159 81.5017 153.546 81.5017 146.817V135.364C62.3985 139.542 58.2469 126.314 58.2469 126.314C55.1994 118.381 50.6327 116.29 50.6327 116.29C44.4019 111.979 51.1861 112.118 51.1861 112.118C57.9682 112.535 61.5688 119.077 61.5688 119.077C67.6588 129.657 77.7649 126.453 81.6424 124.784C82.3341 120.329 84.1343 117.13 86.0709 115.456C70.8427 113.647 54.6463 108.079 54.6463 81.6289C54.6463 74.111 57.2765 67.9839 61.5688 63.2503C60.8774 61.4422 58.6618 54.6198 62.3985 45.1546C62.3985 45.1546 67.9354 43.3441 81.0868 52.1136C86.4857 50.5839 92.5782 49.6077 98.3944 49.6077C104.07 49.6077 110.16 50.5839 115.697 52.1136C128.708 43.3441 134.245 45.1546 134.245 45.1546C137.984 54.6198 135.771 61.4422 135.08 63.2503C139.367 67.9842 142 74.111 142 81.6289Z" fill="currentColor"/>
</svg>
