<svg width="197" height="197" viewBox="0 0 197 197" fill="none" xmlns="http://www.w3.org/2000/svg">
<path fill-rule="evenodd" clip-rule="evenodd" d="M98.5677 0C44.2706 0 0.25415 44.0165 0.25415 98.3136C0.25415 152.611 44.2706 196.627 98.5677 196.627C152.865 196.627 196.881 152.611 196.881 98.3136C196.881 44.0165 152.865 0 98.5677 0ZM38.8812 70.8884C38.8812 53.0709 53.3252 38.627 71.1427 38.627H125.993C143.81 38.627 158.254 53.0709 158.254 70.8884V125.738C158.254 143.556 143.81 158 125.993 158H71.1427C53.3251 158 38.8812 143.556 38.8812 125.738V70.8884Z" fill="currentColor"/>
<circle cx="98.5873" cy="98.378" r="27.7012" fill="white" stroke="currentColor" stroke-width="12.1421"/>
<circle cx="133.479" cy="63.4049" r="7.87218" fill="currentColor"/>
</svg>
