<svg width="197" height="197" viewBox="0 0 197 197" fill="none" xmlns="http://www.w3.org/2000/svg">
<path fill-rule="evenodd" clip-rule="evenodd" d="M98.5677 0C44.2706 0 0.25415 44.0165 0.25415 98.3136C0.25415 152.611 44.2706 196.627 98.5677 196.627C152.865 196.627 196.881 152.611 196.881 98.3136C196.881 44.0165 152.865 0 98.5677 0ZM58.6727 73.516C64.9886 73.516 70.1086 68.3959 70.1086 62.08C70.1086 55.7641 64.9886 50.644 58.6727 50.644C52.3568 50.644 47.2367 55.7641 47.2367 62.08C47.2367 68.3959 52.3568 73.516 58.6727 73.516ZM70.1086 82.0928V145.944H47.2367V82.0928H70.1086ZM107.366 86.0745C110.379 82.8944 114.446 80.9191 118.808 80.5173L120.119 80.3966C135.221 79.0056 148.254 90.893 148.254 106.06V145.945H125.382V108.596C125.382 103.296 121.352 98.8638 116.076 98.3613C110.242 97.8057 105.125 102.23 104.832 108.083L104.416 116.399V145.944H81.5444V82.0928H104.416V89.1881L107.366 86.0745Z" fill="currentColor"/>
</svg>
