<svg width="198" height="197" viewBox="0 0 198 197" fill="none" xmlns="http://www.w3.org/2000/svg">
<path fill-rule="evenodd" clip-rule="evenodd" d="M0.881226 98.3136C0.881226 44.0165 44.8977 0 99.1948 0C153.492 0 197.508 44.0165 197.508 98.3136C197.508 152.611 153.492 196.627 99.1948 196.627C44.8977 196.627 0.881226 152.611 0.881226 98.3136ZM84.1667 49.7832C82.1132 46.0722 76.774 46.0722 74.7205 49.7832L39.3999 114.106C37.7571 117.405 40.2213 121.116 43.9176 121.116H67.7385V145.443C67.7385 147.917 69.7921 149.979 72.2563 149.979H86.2203C88.6845 149.979 90.738 147.917 90.738 145.443V121.116H84.1667C81.2918 121.116 79.2383 119.054 78.8276 116.58C78.8276 115.756 78.8276 114.931 79.2383 114.098L98.9521 78.2255L84.1667 49.7832ZM123.777 49.7832C121.708 46.0722 116.329 46.0722 114.261 49.7832L98.952 78.2338L118.812 114.098C119.225 114.931 119.225 115.756 119.225 116.58C118.812 119.054 116.743 121.116 113.847 121.116H107.227V145.443C107.227 147.917 109.296 149.979 111.778 149.979H126.669C129.155 149.979 131.224 147.917 131.224 145.443V121.116H154.807C158.531 121.116 161.014 117.405 159.359 114.106L123.777 49.7832Z" fill="currentColor"/>
</svg>
