<svg width="959" height="964" viewBox="0 0 959 964" fill="none" xmlns="http://www.w3.org/2000/svg">
<path d="M562.334 441.705L508.495 403.148C496.437 394.512 479.465 399.952 474.673 413.988C471.501 423.279 474.831 433.55 482.852 439.212L539.888 479.474C604.541 525.111 679.864 553.316 758.591 561.367L772.58 569.597C790.746 580.284 811.839 584.918 832.812 582.829C838.348 582.278 843.349 579.285 846.451 574.667L849.37 570.322C859.042 555.925 861.088 537.717 854.853 521.532L849.963 508.841C848.133 504.09 843.07 501.428 838.118 502.612L834.139 503.563C827.782 505.084 821.112 502.88 816.911 497.872C813.114 493.344 807.173 491.21 801.362 492.287L790.936 494.22C784.655 495.384 778.911 498.53 774.549 503.196L767.297 510.952C764.062 514.412 759.374 516.137 754.668 515.605C685.337 507.777 619.058 482.33 562.334 441.705Z" fill="#D8D8D8"/>
<path d="M774.549 503.196L766.051 512.285C763.529 514.982 761.997 518.455 761.705 522.136L758.591 561.367L772.58 569.597C790.746 580.284 811.84 584.918 832.812 582.829C838.348 582.278 843.349 579.285 846.452 574.667L849.371 570.322C859.042 555.925 861.088 537.717 854.853 521.532L849.963 508.841C848.133 504.091 843.07 501.428 838.119 502.612L834.139 503.564C827.782 505.084 821.112 502.88 816.911 497.872C813.114 493.344 807.173 491.21 801.362 492.287L790.936 494.22C784.655 495.384 778.912 498.53 774.549 503.196Z" fill="#2095FF"/>
<path d="M600.267 803.044L609.471 766.901C631.716 679.555 561.638 596.169 471.767 603.044V645.044C533.269 660.216 569.212 724.138 550.224 784.571L532.823 839.952C529.801 849.568 533.255 860.039 541.404 865.97L663.458 954.812C668.705 958.632 676.141 955.673 677.33 949.293C685.897 903.346 668.229 856.443 631.477 827.566L600.267 803.044Z" fill="#01051E"/>
<path d="M475.273 344.159L472.776 366.409L467.445 394.267L500.822 408.346L511.618 386.987C522.159 366.132 541.218 350.867 563.871 345.135L617.436 327.378C625.285 324.776 629.538 316.304 626.937 308.456L613.436 267.729C612.586 265.167 613.975 262.401 616.538 261.551C623.994 259.079 627.272 250.36 623.29 243.588L582.364 173.996L449.553 212.563L473.384 313.01C475.803 323.207 476.442 333.745 475.273 344.159Z" fill="#2095FF"/>
<path d="M399.182 99.3449L415.029 96.8938C451.49 91.254 488.53 102.581 515.601 127.65L431.426 155.553L430.685 151.387C427.009 130.73 415.78 112.18 399.182 99.3449Z" fill="#003F79"/>
<path d="M508.598 81.0222L503.989 95.6934L556.099 112.912L553.214 86.7456C551.29 69.2946 555.014 51.6868 563.84 36.5095C538.127 38.8324 516.335 56.3919 508.598 81.0222Z" fill="#003F79"/>
<path d="M559.838 148.929L560.073 152.396L497.804 104.591L517.347 90.1542C534.057 77.81 554.241 71.0638 575.015 70.8796L590.381 70.7433L590.008 71.1003C568.915 91.2911 557.865 119.797 559.838 148.929Z" fill="#003F79"/>
<path d="M454.243 25.0126L488.796 42.3781C530.66 63.4171 561.288 101.641 572.696 147.083L440.652 190.855L436.208 171.688C431.308 150.552 436.08 128.332 449.228 111.072C459.484 97.6092 463.693 80.4939 460.851 63.8098L454.243 25.0126Z" fill="#003F79"/>
<path d="M441.768 171.735L452.528 172.223L440.224 186.484C430.873 182.879 420.839 181.387 410.843 182.115L407.377 182.367C417.257 174.935 429.417 171.176 441.768 171.735Z" fill="#003F79"/>
<path d="M479.127 136.255L497.56 145.687L507.833 163.42L445.29 188.455L435.059 178.042C428.652 171.521 421.288 166.014 413.221 161.712L371.767 139.606L417.432 128.799C438.23 123.876 460.1 126.52 479.127 136.255Z" fill="#003F79"/>
<path d="M412.757 414.6L424.592 393.441C439.538 366.723 471.211 354.198 500.388 363.469C546.057 377.979 560.501 435.469 527.114 469.842L521.364 475.762C495.807 502.074 482.431 537.881 484.479 574.504L485.767 597.544C581.39 581.455 677.439 623.669 730.248 704.995L743.267 725.044L774.717 720.161C824.194 712.48 874.536 727.075 912.232 760.03C920.707 767.438 917.383 781.315 906.471 784.08L722.525 830.691C715.897 832.371 708.971 829.355 705.686 823.358L667.163 753.05C626.838 679.453 544.239 639.571 461.527 653.762L452.715 655.273C421.942 660.553 393.152 638.615 390.078 607.545L384.424 550.387C379.764 503.292 389.653 455.901 412.757 414.6Z" fill="white"/>
<path d="M461.559 653.756L451.226 655.529C421.264 660.669 393.238 639.298 390.267 609.044L388.767 597.044L390.797 597.29C422.333 601.113 454.21 601.198 485.767 597.544C581.39 581.455 677.439 623.669 730.248 704.995L743.267 725.044L774.717 720.161C824.194 712.48 874.536 727.075 912.232 760.029C920.707 767.438 917.383 781.315 906.471 784.08L722.525 830.691C715.897 832.371 708.971 829.355 705.686 823.358L667.147 753.022C626.832 679.441 544.252 639.569 461.559 653.756Z" fill="#010932"/>
<path d="M64.5671 466.22L114.532 464.048C158.909 462.118 199.918 439.841 225.691 403.664L233.072 393.304C265.911 347.208 325.25 328.347 378.677 347.023L401.002 354.827C419.491 361.29 439.454 362.269 458.486 357.646C487.527 350.593 517.993 361.351 536.166 385.076L542.267 393.041L520.565 381.964C503.577 373.293 484.079 370.881 465.489 375.15L443.584 380.18C430.558 383.171 417.093 383.734 403.863 381.839L399.434 381.205C357.904 375.258 324.043 414.093 335.592 454.426C344.419 485.256 339.332 518.404 321.665 545.168L293.992 587.089C287.452 596.996 274.502 600.391 263.943 594.966L247.318 586.425C234.46 579.819 218.655 582.834 208.996 593.588C195.538 608.57 171.488 607.43 159.789 591.037C152.869 581.34 141.066 576.382 129.297 578.228L120.384 579.625C95.1338 583.586 74.0779 560.406 80.4385 535.651L82.7422 526.686C84.3949 520.254 81.8982 513.47 76.4701 509.644L56.0529 495.253C43.5899 486.468 49.3337 466.882 64.5671 466.22Z" fill="#003F79"/>
<path d="M564.912 397.51L490.76 375.179C474.821 370.379 458.767 382.311 458.767 398.956C458.767 409.976 466.028 419.677 476.601 422.782L551.78 444.864C636.998 469.894 727.229 472.539 813.767 452.544C848.661 459.719 884.895 456.471 917.958 443.205L933.167 437.102C942.601 433.317 949.521 425.07 951.61 415.122L952.251 412.07C956.305 392.764 950.148 372.729 935.95 359.033C925.04 348.507 907.694 348.71 897.032 359.488L886.93 369.7C876.267 380.479 861.735 386.544 846.573 386.544C842.538 386.544 839.267 383.273 839.267 379.237V356.686C839.267 346.687 833.033 337.747 823.65 334.291C817.055 331.861 809.913 336.191 809.018 343.162L802.756 391.944C801.863 398.902 796.696 404.549 789.845 406.057C715.366 422.442 637.933 419.5 564.912 397.51Z" fill="white"/>
<path d="M809.018 343.162L801.753 399.755C801.432 402.258 801.587 404.8 802.211 407.245L813.767 452.544C848.661 459.719 884.895 456.471 917.958 443.205L933.167 437.102C942.601 433.317 949.521 425.07 951.61 415.122L952.251 412.07C956.305 392.764 950.148 372.729 935.95 359.033C925.04 348.507 907.694 348.71 897.032 359.488L886.93 369.7C876.267 380.479 861.735 386.544 846.573 386.544C842.538 386.544 839.267 383.273 839.267 379.237V356.686C839.267 346.687 833.033 337.747 823.65 334.291C817.055 331.861 809.913 336.191 809.018 343.162Z" fill="#2095FF"/>
<path d="M446.339 213.744L447.373 212.593L547.074 182.002L520.886 208.54L529.463 208.067L518.011 223.94C514.748 228.463 513.449 234.111 514.409 239.604L515.58 246.311C518.787 264.676 510.525 283.149 494.699 293.003C483.582 299.924 474.972 310.221 470.129 322.388L467.871 328.063L466.25 320.847C462.996 306.356 461.355 291.55 461.355 276.699C455.907 281.046 451.294 286.347 447.742 292.344L441.872 302.255L442.838 290.459C443.768 279.103 446.117 267.909 449.83 257.137C441.407 254.461 432.273 255.171 424.363 259.114L418.755 261.911L424.26 248.693C429.595 235.881 437.06 224.065 446.339 213.744Z" fill="#003F79"/>
<rect x="437.323" y="184.464" width="145.11" height="31.095" transform="rotate(-16.0109 437.323 184.464)" fill="currentColor"/>
<ellipse cx="580.201" cy="160.154" rx="8.63751" ry="29.9434" transform="rotate(-18.3402 580.201 160.154)" fill="white" stroke="black" stroke-width="9.21334"/>
<ellipse cx="576.267" cy="226.975" rx="12.6683" ry="28.7917" transform="rotate(-18.3402 576.267 226.975)" fill="white"/>
<ellipse cx="576.158" cy="218.928" rx="7.51762" ry="17.0855" transform="rotate(-18.3402 576.158 218.928)" fill="currentColor"/>
<ellipse cx="578.399" cy="210.556" rx="2.62621" ry="5.96865" transform="rotate(-18.3402 578.399 210.556)" fill="white"/>
<path d="M552.807 196.505L547.854 203.424C546.754 204.961 548.764 206.798 550.196 205.563L558.075 198.771C562.979 194.544 568.932 191.716 575.307 190.587L575.516 190.55C577.409 190.214 578.876 188.705 579.157 186.803C579.641 183.527 576.518 180.881 573.366 181.896L572.382 182.213C564.494 184.755 557.631 189.765 552.807 196.505Z" fill="currentColor"/>
<path d="M611.198 292.337L604.767 295.482C599.585 298.016 593.357 296.873 589.412 292.665C588.26 291.436 588.87 289.421 590.509 289.036L609.508 284.578C611.416 284.13 613.316 285.352 613.701 287.274C614.114 289.334 613.086 291.414 611.198 292.337Z" fill="white"/>
<path d="M551.6 173.446L553.294 164.516C557.31 143.34 545.028 122.463 524.567 115.687C518.877 113.802 512.831 113.237 506.889 114.035C493.203 115.872 480.769 122.97 472.23 133.822L455.392 155.222L475.182 161.191L551.6 173.446Z" fill="#003F79"/>
<rect x="761.789" y="406.149" width="42" height="62.7995" rx="12" transform="rotate(-13.0838 761.789 406.149)" fill="#003F79"/>
<rect x="723.702" y="502.544" width="42" height="62.7995" rx="12" transform="rotate(5.42323 723.702 502.544)" fill="#003F79"/>
</svg>
