<svg width="87" height="69" viewBox="0 0 87 69" fill="none" xmlns="http://www.w3.org/2000/svg">
<path d="M18.1832 54.7388L9.49509 50.0471C3.78222 46.9622 0.221436 40.9926 0.221436 34.5C0.221436 28.0074 3.78221 22.0378 9.49508 18.9529L18.1666 14.2703C6.45577 25.1301 6.41706 43.8398 18.1832 54.7388Z" fill="white"/>
<path d="M27.1862 59.6003C7.48304 48.7462 7.2703 20.2567 26.9598 9.52194L27.1725 9.4071C27.1801 9.40306 27.1876 9.39903 27.1952 9.395L27.1938 9.39561L36.3775 4.4364C49.6671 -2.73997 66.0917 -0.339343 76.7715 10.3404C90.1144 23.6834 90.1144 45.3166 76.7715 58.6596C66.0917 69.3393 49.6671 71.74 36.3775 64.5636L27.1952 59.6052C27.1922 59.6036 27.1892 59.6019 27.1862 59.6003Z" fill="white"/>
<circle cx="55.5" cy="34" r="28" fill="#003E77"/>
<path fill-rule="evenodd" clip-rule="evenodd" d="M78.5625 29.2931C76.993 34.3269 72.2957 37.981 66.745 37.981C59.9097 37.981 54.3685 32.4398 54.3685 25.6045C54.3685 20.0538 58.0225 15.3566 63.0562 13.787C61.509 13.4215 59.8952 13.228 58.2362 13.228C46.7015 13.228 37.3508 22.5787 37.3508 34.1134C37.3508 45.648 46.7015 54.9987 58.2362 54.9987C69.7709 54.9987 79.1215 45.648 79.1215 34.1134C79.1215 32.4543 78.9281 30.8405 78.5625 29.2931Z" fill="white"/>
</svg>
