<svg width="198" height="197" viewBox="0 0 198 197" fill="none" xmlns="http://www.w3.org/2000/svg">
<path fill-rule="evenodd" clip-rule="evenodd" d="M0.881226 98.3136C0.881226 44.0165 44.8977 0 99.1948 0C153.492 0 197.508 44.0165 197.508 98.3136C197.508 152.611 153.492 196.627 99.1948 196.627C44.8977 196.627 0.881226 152.611 0.881226 98.3136ZM66.424 43.7218H153V107.428L119.367 141.129H100.99L78.1892 163.93V141.129H50.3514V59.7943L66.424 43.7218ZM71.8245 120.404V53.6142H143.107V102.729L125.431 120.404H107.67H107.463L107.316 120.551L92.2432 135.624V120.904V120.404H91.7432H71.8245ZM95.8268 69.0416H104.811V95.9942H95.8268V69.0416ZM130.13 69.0416H121.146V95.9942H130.13V69.0416Z" fill="currentColor"/>
</svg>
