<svg width="198" height="197" viewBox="0 0 198 197" fill="none" xmlns="http://www.w3.org/2000/svg">
<path fill-rule="evenodd" clip-rule="evenodd" d="M98.9406 0C44.6436 0 0.627075 44.0165 0.627075 98.3136C0.627075 152.611 44.6436 196.627 98.9406 196.627C153.238 196.627 197.254 152.611 197.254 98.3136C197.254 44.0165 153.238 0 98.9406 0ZM144.487 69.3378C149.467 68.7459 154.212 67.433 158.627 65.4834C155.327 70.3921 151.152 74.704 146.342 78.1605C147.902 112.601 122.077 151 76.3671 151C62.4671 151 49.5221 146.947 38.6271 139.999C51.6871 141.531 64.7271 137.925 75.0771 129.853C64.2971 129.654 55.2071 122.577 52.0771 112.85C55.9371 113.586 59.7321 113.367 63.1971 112.432C51.3571 110.069 43.1821 99.4563 43.4521 88.1121C46.7671 89.9473 50.5671 91.0464 54.5971 91.1757C43.6371 83.8848 40.5321 69.487 46.9821 58.481C59.1271 73.2966 77.2671 83.0443 97.7221 84.0638C94.1321 68.7509 105.812 54 121.707 54C128.787 54 135.192 56.9741 139.677 61.7335C145.287 60.6344 150.557 58.5954 155.312 55.7904C153.477 61.5097 149.572 66.309 144.487 69.3378Z" fill="currentColor"/>
</svg>
