<svg width="101" height="100" viewBox="0 0 101 100" fill="none" xmlns="http://www.w3.org/2000/svg">
<path d="M59.6242 3.7868C54.2296 -1.26227 45.8436 -1.26227 40.449 3.7868L37.4152 6.62636C34.9324 8.95008 31.6902 10.293 28.2915 10.4055L24.1384 10.5429C16.7536 10.7872 10.8238 16.717 10.5795 24.1018L10.4421 28.2549C10.3297 31.6536 8.9867 34.8958 6.66298 37.3785L3.82342 40.4124C-1.22565 45.807 -1.22565 54.193 3.82342 59.5876L6.66298 62.6215C8.9867 65.1042 10.3297 68.3464 10.4421 71.7451L10.5795 75.8982C10.8238 83.283 16.7536 89.2128 24.1384 89.4571L28.2915 89.5945C31.6902 89.707 34.9324 91.0499 37.4152 93.3736L40.449 96.2132C45.8436 101.262 54.2296 101.262 59.6242 96.2132L62.6581 93.3736C65.1408 91.0499 68.383 89.707 71.7817 89.5945L75.9348 89.4571C83.3196 89.2128 89.2494 83.283 89.4937 75.8982L89.6311 71.7451C89.7436 68.3464 91.0865 65.1042 93.4103 62.6215L96.2498 59.5876C101.299 54.193 101.299 45.807 96.2498 40.4124L93.4103 37.3785C93.1246 37.0733 92.8537 36.7566 92.5982 36.4295L54.2581 74.5856C51.7949 77.037 47.8139 77.037 45.3507 74.5856L18.9249 48.2866C16.4533 45.8269 16.4437 41.8293 18.9034 39.3577C21.3632 36.8861 25.3608 36.8765 27.8324 39.3362L49.8044 61.2028L89.2554 21.9411C88.0528 15.5914 82.5836 10.7629 75.9348 10.5429L71.7817 10.4055C68.383 10.293 65.1408 8.95008 62.6581 6.62635L59.6242 3.7868Z" fill="white"/>
</svg>
