<svg width="197" height="197" viewBox="0 0 197 197" fill="none" xmlns="http://www.w3.org/2000/svg">
<path fill-rule="evenodd" clip-rule="evenodd" d="M98.3136 0.00390625C44.0165 0.00390625 0 44.0204 0 98.3175C0 152.615 44.0165 196.631 98.3136 196.631C152.611 196.631 196.627 152.615 196.627 98.3175C196.627 44.0204 152.611 0.00390625 98.3136 0.00390625ZM42.9374 155L50.6461 126.717C45.8903 118.44 43.3894 109.049 43.3924 99.4311C43.4048 69.3376 67.7792 44.8545 97.7278 44.8545C112.263 44.8611 125.906 50.5451 136.163 60.8615C146.422 71.1778 152.069 84.8904 152.063 99.4738C152.051 129.568 127.675 154.053 97.7299 154.053H97.7057C88.6124 154.05 79.6774 151.757 71.7417 147.411L42.9374 155ZM82.7122 74.9493C81.6033 72.5162 80.4358 72.4675 79.3808 72.4249C78.565 72.3904 77.6376 72.3905 76.7054 72.3906L76.5437 72.3906C75.5566 72.3906 73.9526 72.7567 72.5961 74.2187C72.5096 74.3119 72.413 74.4136 72.308 74.5241L72.307 74.5251C70.7652 76.1478 67.4139 79.6747 67.4139 86.4029C67.4139 93.5415 72.6456 100.441 73.4429 101.492L73.459 101.513C73.5152 101.587 73.6216 101.743 73.777 101.97L73.7771 101.97L73.7771 101.97C75.672 104.742 84.8418 118.154 98.7486 123.566C110.051 127.965 113.218 127.597 115.726 127.306C115.993 127.275 116.253 127.245 116.514 127.221C119.228 126.978 125.273 123.688 126.507 120.276C127.741 116.865 127.741 113.941 127.37 113.33C127.072 112.84 126.375 112.508 125.342 112.016L125.341 112.015C125.091 111.896 124.821 111.768 124.532 111.625C123.052 110.895 115.774 107.36 114.416 106.873C113.059 106.385 112.072 106.142 111.085 107.605C110.098 109.066 107.262 112.356 106.399 113.33C105.535 114.306 104.671 114.428 103.19 113.697C102.947 113.577 102.616 113.435 102.206 113.26L102.206 113.26C100.12 112.366 96.0132 110.606 91.2853 106.446C86.8842 102.574 83.9129 97.7917 83.0492 96.329C82.1855 94.8678 82.9566 94.0764 83.6993 93.348C84.143 92.9112 84.654 92.2977 85.1649 91.6843L85.165 91.6842C85.4196 91.3786 85.6741 91.073 85.9203 90.7893C86.5482 90.0641 86.8207 89.5154 87.1915 88.7688L87.1923 88.7672C87.2574 88.636 87.3256 88.4987 87.3993 88.3532C87.8929 87.3775 87.6461 86.5245 87.2759 85.7939C87.1189 85.4839 86.5107 84.0051 85.7618 82.1843L85.7612 82.1829L85.7607 82.1818C84.7446 79.7112 83.4699 76.612 82.7122 74.9493Z" fill="currentColor"/>
</svg>
